<svg xmlns="http://www.w3.org/2000/svg" viewBox="0 0 384 64" width="384" height="64">
<path d="M 16 16 h 32 v 48 h -32 Z" fill="#e74c3c" /><path d="M 36 24 h 4 v 4 h -4 Z" fill="#f1c40f" /><path d="M 44 24 h 4 v 4 h -4 Z" fill="#f1c40f" />
<path d="M 80 12.535898384862247 h 32 v 51.46410161513776 h -32 Z" fill="#e74c3c" /><path d="M 100 20.535898384862247 h 4 v 4 h -4 Z" fill="#f1c40f" /><path d="M 108 20.535898384862247 h 4 v 4 h -4 Z" fill="#f1c40f" />
<path d="M 144 12.535898384862245 h 32 v 51.46410161513776 h -32 Z" fill="#e74c3c" /><path d="M 164 20.535898384862247 h 4 v 4 h -4 Z" fill="#f1c40f" /><path d="M 172 20.535898384862247 h 4 v 4 h -4 Z" fill="#f1c40f" />
<path d="M 208 16 h 32 v 48 h -32 Z" fill="#e74c3c" /><path d="M 228 24 h 4 v 4 h -4 Z" fill="#f1c40f" /><path d="M 236 24 h 4 v 4 h -4 Z" fill="#f1c40f" />
<path d="M 272 12.535898384862247 h 32 v 51.46410161513776 h -32 Z" fill="#e74c3c" /><path d="M 292 20.535898384862247 h 4 v 4 h -4 Z" fill="#f1c40f" /><path d="M 300 20.535898384862247 h 4 v 4 h -4 Z" fill="#f1c40f" />
<path d="M 336 12.535898384862247 h 32 v 51.46410161513776 h -32 Z" fill="#e74c3c" /><path d="M 356 20.535898384862247 h 4 v 4 h -4 Z" fill="#f1c40f" /><path d="M 364 20.535898384862247 h 4 v 4 h -4 Z" fill="#f1c40f" />
</svg>