<svg xmlns="http://www.w3.org/2000/svg" viewBox="0 0 448 64" width="448" height="64">
<path d="M 16 16 h 32 v 48 h -32 Z" fill="#f1c40f" /><path d="M 36 24 h 4 v 4 h -4 Z" fill="#3498db" /><path d="M 44 24 h 4 v 4 h -4 Z" fill="#3498db" /><circle cx="32" cy="32" r="24" fill="#3498db" opacity="0.5" />
<path d="M 80 16 h 32 v 48 h -32 Z" fill="#f1c40f" /><path d="M 100 24 h 4 v 4 h -4 Z" fill="#3498db" /><path d="M 108 24 h 4 v 4 h -4 Z" fill="#3498db" /><circle cx="96" cy="32" r="30.25465185974424" fill="#3498db" opacity="0.5" />
<path d="M 144 16 h 32 v 48 h -32 Z" fill="#f1c40f" /><path d="M 164 24 h 4 v 4 h -4 Z" fill="#3498db" /><path d="M 172 24 h 4 v 4 h -4 Z" fill="#3498db" /><circle cx="160" cy="32" r="31.799423297454588" fill="#3498db" opacity="0.5" />
<path d="M 208 16 h 32 v 48 h -32 Z" fill="#f1c40f" /><path d="M 228 24 h 4 v 4 h -4 Z" fill="#3498db" /><path d="M 236 24 h 4 v 4 h -4 Z" fill="#3498db" /><circle cx="224" cy="32" r="27.471069912940465" fill="#3498db" opacity="0.5" />
<path d="M 272 16 h 32 v 48 h -32 Z" fill="#f1c40f" /><path d="M 292 24 h 4 v 4 h -4 Z" fill="#3498db" /><path d="M 300 24 h 4 v 4 h -4 Z" fill="#3498db" /><circle cx="288" cy="32" r="20.528930087059535" fill="#3498db" opacity="0.5" />
<path d="M 336 16 h 32 v 48 h -32 Z" fill="#f1c40f" /><path d="M 356 24 h 4 v 4 h -4 Z" fill="#3498db" /><path d="M 364 24 h 4 v 4 h -4 Z" fill="#3498db" /><circle cx="352" cy="32" r="16.200576702545412" fill="#3498db" opacity="0.5" />
<path d="M 400 16 h 32 v 48 h -32 Z" fill="#f1c40f" /><path d="M 420 24 h 4 v 4 h -4 Z" fill="#3498db" /><path d="M 428 24 h 4 v 4 h -4 Z" fill="#3498db" /><circle cx="416" cy="32" r="17.74534814025576" fill="#3498db" opacity="0.5" />
</svg>