<svg xmlns="http://www.w3.org/2000/svg" viewBox="0 0 320 64" width="320" height="64">
<path d="M 16 16 h 32 v 48 h -32 Z" fill="#f1c40f" /><path d="M 36 24 h 4 v 4 h -4 Z" fill="#3498db" /><path d="M 44 24 h 4 v 4 h -4 Z" fill="#3498db" /><path d="M 48 32 h 16 v 4 h -16 Z" fill="#ffffff" />
<path d="M 80 16 h 32 v 48 h -32 Z" fill="#f1c40f" /><path d="M 100 24 h 4 v 4 h -4 Z" fill="#3498db" /><path d="M 108 24 h 4 v 4 h -4 Z" fill="#3498db" /><path d="M 112 32 h 16 v 4 h -16 Z" fill="#ffffff" />
<path d="M 144 16 h 32 v 48 h -32 Z" fill="#f1c40f" /><path d="M 164 24 h 4 v 4 h -4 Z" fill="#3498db" /><path d="M 172 24 h 4 v 4 h -4 Z" fill="#3498db" /><path d="M 176 32 h 16 v 4 h -16 Z" fill="#ffffff" />
<path d="M 208 16 h 32 v 48 h -32 Z" fill="#f1c40f" /><path d="M 228 24 h 4 v 4 h -4 Z" fill="#3498db" /><path d="M 236 24 h 4 v 4 h -4 Z" fill="#3498db" /><path d="M 240 32 h 16 v 4 h -16 Z" fill="#ffffff" />
<path d="M 272 16 h 32 v 48 h -32 Z" fill="#f1c40f" /><path d="M 292 24 h 4 v 4 h -4 Z" fill="#3498db" /><path d="M 300 24 h 4 v 4 h -4 Z" fill="#3498db" /><path d="M 304 32 h 16 v 4 h -16 Z" fill="#ffffff" />
</svg>