<svg xmlns="http://www.w3.org/2000/svg" viewBox="0 0 320 64" width="320" height="64">
<path d="M 16 16 h 32 v 48 h -32 Z" fill="#1abc9c" /><path d="M 36 24 h 4 v 4 h -4 Z" fill="#f39c12" /><path d="M 44 24 h 4 v 4 h -4 Z" fill="#f39c12" />
<path d="M 80 12.195773934819385 h 32 v 51.804226065180615 h -32 Z" fill="#1abc9c" /><path d="M 100 20.195773934819385 h 4 v 4 h -4 Z" fill="#f39c12" /><path d="M 108 20.195773934819385 h 4 v 4 h -4 Z" fill="#f39c12" />
<path d="M 144 13.648858990830107 h 32 v 50.35114100916989 h -32 Z" fill="#1abc9c" /><path d="M 164 21.648858990830107 h 4 v 4 h -4 Z" fill="#f39c12" /><path d="M 172 21.648858990830107 h 4 v 4 h -4 Z" fill="#f39c12" />
<path d="M 208 13.648858990830108 h 32 v 50.35114100916989 h -32 Z" fill="#1abc9c" /><path d="M 228 21.648858990830107 h 4 v 4 h -4 Z" fill="#f39c12" /><path d="M 236 21.648858990830107 h 4 v 4 h -4 Z" fill="#f39c12" />
<path d="M 272 12.195773934819385 h 32 v 51.804226065180615 h -32 Z" fill="#1abc9c" /><path d="M 292 20.195773934819385 h 4 v 4 h -4 Z" fill="#f39c12" /><path d="M 300 20.195773934819385 h 4 v 4 h -4 Z" fill="#f39c12" />
</svg>